#!OML:ASF E:\motion texture\Top Level 1\Subject 1\Session 1\male.ASF
:FULLY-SPECIFIED
:DEGREES
330
root 13.5916 17.8244 5.00004 72.5472 -82.442 -66.019
lowerback 1.14633 4.25583 -1.8592
upperback 2.16457 5.5596 -7.24546
thorax 2.15057 2.7445 -6.43757
lowerneck -8.98713 14.716 3.62661
upperneck 30.5097 21.965 -7.99829
head 13.0791 8.83012 -0.535802
rclavicle -1.11319e-014 -1.90833e-014
rhumerus -24.2447 2.14206 -90.7693
rradius 30.6445
rwrist 14.4551
rhand -9.22301 -20.895
rfingers 7.12502
rthumb 16.7318 -50.194
lclavicle -1.11319e-014 -1.90833e-014
lhumerus -22.6462 27.0072 60.1045
lradius 28.5632
lwrist -32.8897
lhand -15.1566 23.8911
lfingers 7.12502
lthumb 11.0137 53.5822
rfemur -24.6537 -12.5597 29.5165
rtibia 59.5994
rfoot -1.23121 -21.2037
rtoes 7.22204
lfemur -19.7667 -5.743 -7.80717
ltibia 26.2813
lfoot -10.9084 -2.57568
ltoes -2.17389
331
root 13.4724 17.8334 4.99682 71.1804 -82.3382 -64.6428
lowerback 1.25077 4.28245 -1.98472
upperback 2.21792 5.58598 -7.33121
thorax 2.14711 2.75419 -6.46429
lowerneck -8.98552 14.7638 3.61353
upperneck 30.5891 22.0393 -7.98681
head 13.1153 8.8555 -0.516423
rclavicle -1.27222e-014 2.8625e-014
rhumerus -24.3019 1.9505 -90.6293
rradius 30.5764
rwrist 14.5011
rhand -9.1831 -20.9394
rfingers 7.12502
rthumb 16.7702 -50.2352
lclavicle -1.27222e-014 2.8625e-014
lhumerus -22.7687 27.1419 59.9288
lradius 28.5919
lwrist -32.8603
lhand -15.156 24.0994
lfingers 7.12502
lthumb 11.0143 53.7905
rfemur -25.4537 -13.0077 29.6863
rtibia 59.2535
rfoot -1.79858 -21.2436
rtoes 7.27188
lfemur -19.3003 -5.83795 -7.82839
ltibia 26.1659
lfoot -11.1537 -2.63063
ltoes -2.25624
332
root 13.3534 17.8424 4.99267 69.756 -82.2173 -63.2027
lowerback 1.35765 4.30625 -2.0987
upperback 2.26479 5.60801 -7.4158
thorax 2.13612 2.76192 -6.49691
lowerneck -8.97193 14.8066 3.60937
upperneck 30.664 22.1047 -7.97818
head 13.148 8.87852 -0.501775
rclavicle 1.51076e-014 -9.54166e-015
rhumerus -24.3656 1.74049 -90.483
rradius 30.4998
rwrist 14.5447
rhand -9.15457 -20.9867
rfingers 7.12502
rthumb 16.7976 -50.2801
lclavicle 1.51076e-014 -9.54166e-015
lhumerus -22.9125 27.2878 59.7476
lradius 28.6065
lwrist -32.836
lhand -15.1701 24.3172
lfingers 7.12502
lthumb 11.0007 54.009
rfemur -26.2232 -13.4423 29.8641
rtibia 58.7818
rfoot -2.38542 -21.2507
rtoes 7.33731
lfemur -18.8449 -5.93911 -7.83622
ltibia 26.0471
lfoot -11.3861 -2.68902
ltoes -2.3452
333
root 13.2348 17.851 4.98779 68.3667 -82.085 -61.7898
lowerback 1.45567 4.32987 -2.2053
upperback 2.31135 5.63039 -7.49609
thorax 2.13011 2.77006 -6.52854
lowerneck -8.96339 14.8455 3.59935
upperneck 30.7351 22.1655 -7.9688
head 13.1789 8.89916 -0.486485
rclavicle 7.15625e-015 -3.18055e-015
rhumerus -24.4239 1.51855 -90.3257
rradius 30.4142
rwrist 14.5898
rhand -9.11635 -21.0448
rfingers 7.12502
rthumb 16.8344 -50.335
lclavicle 7.15625e-015 -3.18055e-015
lhumerus -23.0712 27.4461 59.57
lradius 28.608
lwrist -32.8177
lhand -15.1915 24.5286
lfingers 7.12502
lthumb 10.98 54.2215
rfemur -26.9642 -13.8516 30.0463
rtibia 58.1891
rfoot -2.98095 -21.2201
rtoes 7.35634
lfemur -18.3996 -6.03931 -7.83304
ltibia 25.9239
lfoot -11.6056 -2.74417
ltoes -2.44471
334
root 13.1161 17.8593 4.98215 66.9991 -81.9417 -60.3934
lowerback 1.53883 4.35363 -2.30897
upperback 2.36264 5.65445 -7.56951
thorax 2.13709 2.77922 -6.55326
lowerneck -8.96105 14.8805 3.58131
upperneck 30.8006 22.2219 -7.95936
head 13.2073 8.9174 -0.470389
rclavicle -7.39479e-014 1.01778e-013
rhumerus -24.4727 1.2859 -90.1539
rradius 30.3188
rwrist 14.6392
rhand -9.0858 -21.1009
rfingers 7.12502
rthumb 16.8638 -50.3886
lclavicle -7.39479e-014 1.01778e-013
lhumerus -23.2399 27.6219 59.4002
lradius 28.5926
lwrist -32.8197
lhand -15.2148 24.7191
lfingers 7.12502
lthumb 10.9576 54.4132
rfemur -27.668 -14.2353 30.2289
rtibia 57.473
rfoot -3.5781 -21.1527
rtoes 7.29738
lfemur -17.9592 -6.13992 -7.82016
ltibia 25.7946
lfoot -11.8124 -2.79856
ltoes -2.55395
335
root 12.9976 17.8675 4.97575 65.6371 -81.7861 -58.9967
lowerback 1.6152 4.3753 -2.4063
upperback 2.41326 5.67631 -7.63878
thorax 2.14716 2.78747 -6.57673
lowerneck -8.96261 14.9125 3.55883
upperneck 30.8638 22.2745 -7.94775
head 13.2343 8.9339 -0.453271
rclavicle 7.55382e-014 -9.54166e-014
rhumerus -24.519 1.04423 -89.9739
rradius 30.2155
rwrist 14.6896
rhand -9.06002 -21.1589
rfingers 7.12502
rthumb 16.8887 -50.4446
lclavicle 7.55382e-014 -9.54166e-014
lhumerus -23.4257 27.7969 59.2329
lradius 28.5639
lwrist -32.832
lhand -15.2355 24.9058
lfingers 7.12502
lthumb 10.9376 54.6009
rfemur -28.3356 -14.595 30.4098
rtibia 56.6374
rfoot -4.16347 -21.0458
rtoes 7.18441
lfemur -17.5282 -6.24241 -7.79794
ltibia 25.6638
lfoot -12.0077 -2.85376
ltoes -2.67755
336
root 12.8791 17.8753 4.96857 64.2798 -81.6193 -57.5976
lowerback 1.68076 4.39443 -2.50173
upperback 2.46483 5.69583 -7.70231
thorax 2.16361 2.79464 -6.59435
lowerneck -8.97239 14.9427 3.52815
upperneck 30.9265 22.3254 -7.93237
head 13.2611 8.94907 -0.433294
rclavicle 8.74653e-015 1.27222e-014
rhumerus -24.5592 0.798531 -89.7843
rradius 30.1027
rwrist 14.7419
rhand -9.03605 -21.2203
rfingers 7.12502
rthumb 16.9117 -50.5039
lclavicle 8.74653e-015 1.27222e-014
lhumerus -23.6246 27.9797 59.0706
lradius 28.5185
lwrist -32.8647
lhand -15.2405 25.0807
lfingers 7.12502
lthumb 10.9328 54.776
rfemur -28.9679 -14.9296 30.5856
rtibia 55.6862
rfoot -4.71989 -20.8944
rtoes 7.05022
lfemur -17.1092 -6.34687 -7.76769
ltibia 25.5333
lfoot -12.1918 -2.91131
ltoes -2.809
337
root 12.7604 17.8828 4.96073 62.9282 -81.442 -56.2003
lowerback 1.75103 4.41572 -2.58295
upperback 2.50749 5.71741 -7.77006
thorax 2.17026 2.80318 -6.62523
lowerneck -8.97316 14.9672 3.50686
upperneck 30.9888 22.3639 -7.90951
head 13.2848 8.96134 -0.414751
rclavicle 1.35174e-014 -5.40694e-014
rhumerus -24.6127 0.524963 -89.5943
rradius 29.9863
rwrist 14.7952
rhand -9.01391 -21.2801
rfingers 7.12502
rthumb 16.933 -50.5619
lclavicle 1.35174e-014 -5.40694e-014
lhumerus -23.8401 28.1398 58.9018
lradius 28.455
lwrist -32.9166
lhand -15.2306 25.2468
lfingers 7.12502
lthumb 10.9423 54.9417
rfemur -29.5575 -15.239 30.7514
rtibia 54.6218
rfoot -5.24646 -20.7087
rtoes 6.92235
lfemur -16.6962 -6.45425 -7.73116
ltibia 25.4015
lfoot -12.3651 -2.97151
ltoes -2.9517
338
root 12.6415 17.8899 4.95221 61.5916 -81.2557 -54.8128
lowerback 1.81462 4.43661 -2.65856
upperback 2.54799 5.73899 -7.8361
thorax 2.17883 2.8119 -6.65706
lowerneck -8.96664 14.9864 3.49188
upperneck 31.0438 22.3941 -7.89097
head 13.3047 8.97119 -0.400688
rclavicle 7.15625e-015 -2.8625e-014
rhumerus -24.6672 0.242701 -89.3994
rradius 29.8635
rwrist 14.8501
rhand -8.99298 -21.3379
rfingers 7.12502
rthumb 16.9532 -50.618
lclavicle 7.15625e-015 -2.8625e-014
lhumerus -24.0648 28.3145 58.7316
lradius 28.3664
lwrist -33.0078
lhand -15.2049 25.4001
lfingers 7.12502
lthumb 10.9671 55.0936
rfemur -30.1087 -15.5213 30.9046
rtibia 53.4532
rfoot -5.7293 -20.4951
rtoes 6.78407
lfemur -16.2924 -6.56349 -7.6891
ltibia 25.2705
lfoot -12.528 -3.03485
ltoes -3.10469
